PathFileType	4	(X/Y/Z)	./resultDataOpenSim/trcMotMarkerGrf/sub06/qtm-14-03.trc
DataRate	CameraRate	NumFrames	NumMarkers	Units	OrigDataRate	OrigDataStartFrame	OrigNumFrames
250.000000	250.000000	9	24	m	250.000000	1	542
Frame#	Time	L.Toe.Tip			R.Toe.Tip			L.Ankle.Lat			R.Ankle.Lat			L.Ankle.Med			R.Ankle.Med			L.Heel			R.Heel			L.Knee.Lat			R.Knee.Lat			L.Knee.Med			R.Knee.Med			L.Thigh.Upper			R.Thigh.Upper			L.ASIS			R.ASIS			V.Sacral			L.Acromium			R.Acromium			C7			L.Elbow			R.Elbow			L.Wrist.Lat			R.Wrist.Lat
		X1	Y1	Z1	X2	Y2	Z2	X3	Y3	Z3	X4	Y4	Z4	X5	Y5	Z5	X6	Y6	Z6	X7	Y7	Z7	X8	Y8	Z8	X9	Y9	Z9	X10	Y10	Z10	X11	Y11	Z11	X12	Y12	Z12	X13	Y13	Z13	X14	Y14	Z14	X15	Y15	Z15	X16	Y16	Z16	X17	Y17	Z17	X18	Y18	Z18	X19	Y19	Z19	X20	Y20	Z20	X21	Y21	Z21	X22	Y22	Z22	X23	Y23	Z23	X24	Y24	Z24

1	0	-1.5671804	0.03190305	-0.089801739	-0.90891615	0.13351615	0.1024546	-1.6857583	0.076450323	-0.10229785	-1.0349189	0.088449439	0.10900302	-1.6817386	0.087741228	-0.016331211	-1.0237643	0.12193321	0.02608506	NaN	NaN	NaN	-1.0635636	0.042864911	0.035452159	-1.5177427	0.40731597	-0.12471857	-1.1884954	0.44690927	0.12237527	-1.5342737	0.41762781	-0.0020929793	-1.1978446	0.42476805	-0.0097476549	-1.4134462	0.77862201	-0.18830306	-1.364622	0.77116953	0.16004736	-1.3253463	0.81729864	-0.15524589	-1.2895767	0.82310326	0.091115832	-1.4830745	0.90226056	-0.00068116602	-1.3335707	1.3049928	-0.2014802	-1.3447607	1.2872019	0.16358737	-1.4160523	1.3395175	-0.020335089	-1.3077751	0.98214931	-0.27852347	-1.4809318	0.99808966	0.20780364	-1.0804126	0.88743503	-0.23492287	-1.4020309	0.77624005	0.25277422
2	0.004	-1.5671502	0.031889489	-0.089869811	-0.89978146	0.13487229	0.1016299	-1.6852618	0.077355958	-0.10258853	-1.0253281	0.088681299	0.10797918	-1.6808615	0.088705026	-0.016622887	-1.0146045	0.12247403	0.025202012	NaN	NaN	NaN	-1.0538022	0.043045503	0.034540722	-1.5137511	0.40670262	-0.12476511	-1.181761	0.44594643	0.12205469	-1.5300364	0.41685172	-0.002114808	-1.1912305	0.42368302	-0.010274894	-1.4080733	0.77741417	-0.18796222	-1.3582472	0.76949638	0.16022491	-1.3196675	0.81603924	-0.15509613	-1.2831772	0.82151771	0.090972743	-1.476961	0.90100355	-0.00032954428	-1.3276232	1.3035577	-0.20122204	-1.3390241	1.2856906	0.16395307	-1.4102424	1.3382167	-0.020245356	-1.3004483	0.98076646	-0.27812045	-1.4759676	0.99699278	0.20750289	-1.0730374	0.88683339	-0.23398184	-1.3991565	0.77460965	0.25302534
3	0.008	-1.5671271	0.031872724	-0.089931951	-0.89097628	0.13593954	0.10062283	-1.6847484	0.078321507	-0.10288824	-1.0161247	0.088770957	0.10692866	-1.6800129	0.089701447	-0.016979215	-1.005838	0.12284887	0.02425239	NaN	NaN	NaN	-1.044546	0.043069723	0.03363536	-1.5096691	0.40610895	-0.12482023	-1.1749026	0.44507386	0.12170315	-1.5256758	0.41615592	-0.0021650623	-1.1845603	0.42270352	-0.010754232	-1.402651	0.77622868	-0.18759961	-1.3517538	0.76793957	0.16041302	-1.313926	0.81478343	-0.15491832	-1.2767491	0.81998006	0.090822482	-1.4707514	0.89975946	0.0003127172	-1.3216455	1.3021588	-0.20095531	-1.3332502	1.2842131	0.16434847	-1.4043756	1.3369684	-0.020040256	-1.2931444	0.97942235	-0.27766863	-1.4710146	0.99593635	0.20725347	-1.0657103	0.88617424	-0.23303772	-1.3962306	0.77304748	0.2532916
4	0.012	-1.5671138	0.031849956	-0.089985048	-0.88270655	0.13651636	0.099353692	-1.6841877	0.079381288	-0.10320386	-1.0075387	0.088626	0.10583296	-1.6791607	0.090764722	-0.017415383	-0.99768542	0.122938	0.023192719	NaN	NaN	NaN	-1.0360931	0.042852951	0.032690472	-1.5054117	0.4055357	-0.12489459	-1.1677946	0.44435902	0.12130917	-1.5211148	0.4155331	-0.0022439513	-1.1777905	0.42189605	-0.011163316	-1.3971449	0.77508368	-0.18721129	-1.3450953	0.7665668	0.16060791	-1.3080914	0.81354386	-0.1547117	-1.270254	0.81852856	0.090671173	-1.4643033	0.89852974	0.0017306095	-1.3156135	1.3008198	-0.20067036	-1.3274044	1.2827897	0.16477999	-1.3984204	1.3357928	-0.019694137	-1.2858743	0.97813729	-0.27714007	-1.4660698	0.9949466	0.20708428	-1.0584563	0.88542993	-0.23208683	-1.3932243	0.77158129	0.25357279
5	0.016	-1.5671079	0.031820372	-0.090029607	-0.8750531	0.13652985	0.097841953	-1.6835232	0.080539446	-0.10354003	-0.9996525	0.088212178	0.10466909	-1.6782426	0.091922889	-0.01790433	-0.99021147	0.12268533	0.022009992	NaN	NaN	NaN	-1.0284726	0.042370483	0.031646017	-1.5009327	0.4049594	-0.12499302	-1.1603991	0.44382236	0.12087225	-1.5164224	0.41491763	-0.0023131543	-1.1709135	0.42127922	-0.011515915	-1.3915526	0.77399167	-0.18680407	-1.3381717	0.76542454	0.1608413	-1.3021846	0.81234307	-0.15449004	-1.2636673	0.81718829	0.090531382	-1.4575187	0.8973309	0.0042768905	-1.3095275	1.2995477	-0.2003526	-1.3214817	1.2814286	0.16523699	-1.3923956	1.3346801	-0.019281098	-1.2786523	0.97691817	-0.27653207	-1.4610883	0.99402495	0.20697623	-1.0513	0.88460509	-0.23112528	-1.3901168	0.77020779	0.25385839
6	0.02	-1.5671027	0.031785725	-0.090071398	-0.86801467	0.13599617	0.096123832	-1.6827556	0.081779459	-0.10388674	-0.99246368	0.0875299	0.10341784	-1.6772188	0.093184753	-0.018417793	-0.98339624	0.12207611	0.020708548	NaN	NaN	NaN	-1.0215469	0.041634547	0.030472513	-1.4962258	0.40435835	-0.12509263	-1.1527898	0.44343493	0.12038254	-1.5116597	0.4142717	-0.0023373121	-1.1639452	0.42084114	-0.011839827	-1.3858786	0.77295382	-0.18637929	-1.3309952	0.76450927	0.16113808	-1.2962352	0.81119987	-0.15427509	-1.2569842	0.81597154	0.090410539	-1.4504831	0.89624341	0.0074715524	-1.3033943	1.2983385	-0.1999871	-1.3154899	1.2801291	0.16570911	-1.3863309	1.3336128	-0.018882237	-1.2714874	0.97576551	-0.27585927	-1.4559848	0.99315426	0.20687683	-1.0442565	0.88371296	-0.23015159	-1.3868707	0.76891548	0.25414233
7	0.024	-1.5670849	0.03174777	-0.090123421	-0.86156452	0.13495756	0.094212005	-1.6819969	0.083082637	-0.10422196	-0.98593528	0.086592285	0.10208893	-1.6760836	0.094541637	-0.018947078	-0.9771963	0.12111538	0.019304103	NaN	NaN	NaN	-1.0152636	0.040691467	0.029207334	-1.4913014	0.40373773	-0.12516159	-1.1450791	0.44315175	0.11982445	-1.5067258	0.41360417	-0.0023288667	-1.1569239	0.42055887	-0.012143894	-1.380122	0.77196302	-0.1859294	-1.3238099	0.76376008	0.16146134	-1.2902552	0.81012436	-0.15409496	-1.2502135	0.81488333	0.090311629	-1.4434387	0.89537285	0.010173119	-1.2972138	1.2971924	-0.19957352	-1.3094318	1.27889	0.16619295	-1.3802373	1.3325833	-0.018508183	-1.2643879	0.97467804	-0.27513557	-1.4507133	0.99232668	0.20675521	-1.0373237	0.88276144	-0.22917429	-1.3834571	0.76769888	0.25442767
8	0.028	-1.5670328	0.031705513	-0.090206365	-0.85567886	0.13345346	0.092110677	-1.681299	0.084455023	-0.10455493	-0.98002676	0.085413651	0.10070591	-1.6748545	0.095989535	-0.019500923	-0.97158911	0.11982333	0.017813706	NaN	NaN	NaN	-1.0097422	0.039579068	0.027956773	-1.4861574	0.40311171	-0.12521805	-1.137328	0.44294709	0.11919277	-1.5014969	0.41292202	-0.0023317586	-1.1498965	0.4204064	-0.012422711	-1.3742804	0.77101239	-0.1854482	-1.3167707	0.7631328	0.16177194	-1.2842451	0.80912143	-0.15396471	-1.2433609	0.8139271	0.090241818	-1.4365583	0.89470986	0.01174012	-1.2909772	1.2961174	-0.19912329	-1.3033055	1.2777166	0.16669228	-1.374108	1.3315967	-0.018119002	-1.2573599	0.97365893	-0.27436139	-1.4452955	0.99155463	0.20662122	-1.0304906	0.88175664	-0.22820575	-1.3798788	0.76656182	0.25472246
9	0.032	-1.566927	0.031657028	-0.090337419	-0.85033776	0.1315162	0.089830756	-1.6805237	0.085923386	-0.10493965	-0.97471361	0.084012044	0.099284462	-1.6735433	0.097536184	-0.020095579	-0.96657601	0.11823282	0.016243861	NaN	NaN	NaN	-1.0050818	0.038291472	0.026814849	-1.4807892	0.40248014	-0.1253305	-1.1295264	0.44282005	0.11849656	-1.4959543	0.41221969	-0.0023816951	-1.1428971	0.42035713	-0.012685538	-1.3683545	0.77009544	-0.1849406	-1.309843	0.76260917	0.16206509	-1.2781995	0.80819444	-0.15387073	-1.236432	0.81311165	0.090214518	-1.4298461	0.89410485	0.012467621	-1.2846751	1.2951235	-0.19863997	-1.2971186	1.2766214	0.16721275	-1.3679331	1.3306651	-0.017685288	-1.250408	0.97271681	-0.2735348	-1.4397732	0.9908544	0.20649588	-1.0237509	0.88070754	-0.22724858	-1.3761531	0.76551415	0.25503175
